<?xml version="1.0" encoding="utf-8"?>
<!-- Generator: Adobe Illustrator 28.3.0, SVG Export Plug-In . SVG Version: 6.00 Build 0)  -->
<svg version="1.1" id="Layer_1" xmlns="http://www.w3.org/2000/svg" xmlns:xlink="http://www.w3.org/1999/xlink" x="0px" y="0px"
	 viewBox="0 0 596 180" style="enable-background:new 0 0 596 180;" xml:space="preserve">
<style type="text/css">
	.st0{fill:none;stroke:#000000;stroke-width:6.7645;stroke-linecap:round;stroke-linejoin:round;stroke-miterlimit:1.8039;}
</style>
<path class="st0" d="M495.4,151.8c7.1-0.4,12.9-3.6,17.8-8.4c4.9-4.8,8.2-10.6,8.9-17.6c0.3-2.9,0.5-5.9,0.6-8.8
	c0.1-17.7,0.1-35.5,0-53.2c0-4-0.1-8-1.1-12c-1.9-8-6.7-13.8-13.3-18.2c-4.5-3-9.4-4.5-14.9-4.6c-20.5-0.4-41-0.1-61.6-0.2
	c-5.6,0-11,0.5-16,3.4c-10,5.7-16.1,14-16.4,25.7c-0.6,20.7-0.2,41.5-0.2,62.2c0,6.5,1.2,12.8,5.2,18.3c5.1,7.1,11.6,12,20.5,13.2
	c2,0.3,4.1,0.3,6.1,0.3c20.1,0,40.3,0,60.4,0c1.3,0,2.6-0.1,3.8-0.2"/>
<path class="st0" d="M197.1,28.9c-32.3,0-64.6,0-97,0c-2.7,0-5.5-0.1-8.1,0.7c-9,2.9-15.2,8.5-17.6,18c-3.6,14.2,6.4,28,19.2,30
	c1.9,0.3,3.8,0.4,5.6,0.4c21.9,0,43.7-0.1,65.6,0.1c15.8,0.1,27.7,7.1,34.9,21.4c2.2,4.3,3.1,9,3.3,14c0.2,6.8-0.8,13.2-4.2,19.2
	c-6.3,11.1-15.7,17.7-28.4,19.3c-2.9,0.4-5.9,0.1-8.8,0.1c-29.4-0.1-58.8-0.1-88.2-0.1"/>
<path class="st0" d="M264.5,29.2c0,28.9,0,57.7,0,86.6c0,4.5-0.2,9,1,13.3c2.5,9.5,8.5,16.2,17.3,20.6c4.8,2.4,10,2.7,15.1,2.6
	c30-0.4,60,0,90-0.2"/>
<path class="st0" d="M230.9,28.9c0,41,0,82.1,0,123.1"/>
</svg>
